<svg width="123" height="120" viewBox="0 0 123 120" fill="none" xmlns="http://www.w3.org/2000/svg">
<path d="M120.632 100.769C116.172 106.869 110.98 113.307 106.315 119.339L70.417 91.0659C75.2178 84.903 79.9872 78.7154 84.7236 72.5044L120.632 100.769ZM73.4121 35.854C80.0668 35.8509 89.117 35.4123 95.3828 36.9292C101.071 38.2976 106.338 41.0706 110.704 44.9995C119.227 52.6257 122.31 61.2081 123 72.3442C115.329 72.4646 107.647 72.2408 99.9307 72.4263C99.4845 68.9703 98.4298 65.6347 95.8887 63.147C91.7106 59.0552 87.2035 59.3532 81.9541 59.435C74.4928 70.9203 62.9297 87.9643 52.9795 96.7378C37.5584 109.796 17.1651 109.793 0 100.09C4.81702 93.8576 9.44341 87.3457 14.2256 81.0552C18.0294 82.9287 24.2386 83.7133 28.4395 83.2534C39.0286 82.0926 47.7234 67.4575 53.8613 59.3872C46.2363 59.6906 37.981 59.3199 30.2334 59.4643C36.1148 51.6306 41.9553 43.765 47.7559 35.8696L73.4121 35.854ZM84.1006 0.040511C91.7907 -0.544437 98.4953 5.2741 99.0752 13.0356C99.6526 20.7977 93.8876 27.5632 86.1973 28.146C78.507 28.7284 71.8069 22.9109 71.2295 15.1509C70.6497 7.39076 76.4126 0.625734 84.1006 0.040511Z" fill="#FF5500"/>
</svg>
