<svg width="503" height="125" viewBox="0 0 503 125" fill="none" xmlns="http://www.w3.org/2000/svg">
<path fill-rule="evenodd" clip-rule="evenodd" d="M120.632 105.768C116.172 111.868 110.98 118.306 106.315 124.339L70.417 96.0645C75.2177 89.9017 79.9874 83.7149 84.7236 77.504L120.632 105.768ZM73.4121 40.8526C80.0668 40.8495 89.117 40.4118 95.3828 41.9288C101.071 43.2972 106.338 46.0701 110.704 49.9991C119.227 57.6252 122.31 66.2069 123 77.3428C115.329 77.4632 107.647 77.2394 99.9307 77.4249C99.4845 73.9689 98.4298 70.6333 95.8887 68.1456C91.7107 64.054 87.2034 64.3527 81.9541 64.4346C74.4928 75.9199 62.9297 92.9639 52.9795 101.737C37.5584 114.795 17.165 114.792 0 105.089C4.81697 98.8562 9.44344 92.3442 14.2256 86.0538C18.0294 87.9273 24.2385 88.7129 28.4395 88.253C39.0287 87.0922 47.7233 72.4561 53.8613 64.3858C46.2363 64.6892 37.981 64.3185 30.2334 64.4629C36.1147 56.6294 41.9554 48.7644 47.7559 40.8692L73.4121 40.8526ZM84.1006 5.04009C91.7908 4.45511 98.4954 10.2736 99.0752 18.0352C99.6525 25.7971 93.8875 32.5628 86.1973 33.1456C78.507 33.728 71.8069 27.9095 71.2295 20.1495C70.6499 12.3895 76.4127 5.6253 84.1006 5.04009Z" fill="#FF5500"/>
<path d="M221.148 58.9121H192.584C190.859 58.9121 189.557 59.3516 188.678 60.2305C187.799 61.0768 187.359 62.3301 187.359 63.9902V99H174.664V63.9902C174.664 61.8092 174.941 59.8561 175.494 58.1309C176.048 56.4056 176.78 54.8919 177.691 53.5898C178.635 52.2552 179.71 51.1322 180.914 50.2207C182.118 49.2767 183.372 48.5117 184.674 47.9258C186.008 47.3398 187.343 46.9167 188.678 46.6562C190.045 46.3633 191.314 46.2168 192.486 46.2168H221.148V58.9121ZM287.262 92.6035C287.262 93.515 287.099 94.3613 286.773 95.1426C286.448 95.9238 285.992 96.6074 285.406 97.1934C284.853 97.7467 284.186 98.1862 283.404 98.5117C282.656 98.8372 281.842 99 280.963 99H252.252C250.689 99 249.013 98.821 247.223 98.4629C245.465 98.1048 243.723 97.5352 241.998 96.7539C240.273 95.9401 238.596 94.931 236.969 93.7266C235.374 92.4896 233.974 91.0085 232.77 89.2832C231.565 87.5254 230.589 85.5072 229.84 83.2285C229.124 80.9499 228.766 78.3783 228.766 75.5137V46.2168H241.461V75.5137C241.461 77.1738 241.738 78.6712 242.291 80.0059C242.877 81.3079 243.658 82.431 244.635 83.375C245.611 84.319 246.751 85.0514 248.053 85.5723C249.387 86.0605 250.82 86.3047 252.35 86.3047H274.566V46.2168H287.262V92.6035ZM357.672 99H344.977V69.7031C344.977 68.043 344.684 66.5618 344.098 65.2598C343.544 63.9251 342.779 62.7858 341.803 61.8418C340.826 60.8978 339.671 60.1816 338.336 59.6934C337.034 59.1725 335.618 58.9121 334.088 58.9121H311.871V99H299.176V52.5156C299.176 51.6367 299.339 50.8229 299.664 50.0742C299.99 49.293 300.445 48.6257 301.031 48.0723C301.617 47.4863 302.301 47.0306 303.082 46.7051C303.863 46.3796 304.693 46.2168 305.572 46.2168H334.186C335.781 46.2168 337.457 46.3958 339.215 46.7539C341.005 47.112 342.763 47.6979 344.488 48.5117C346.246 49.293 347.906 50.3021 349.469 51.5391C351.064 52.7435 352.464 54.2246 353.668 55.9824C354.905 57.7077 355.882 59.7096 356.598 61.9883C357.314 64.2669 357.672 66.8385 357.672 69.7031V99ZM426.52 92.6035C426.52 93.515 426.357 94.3613 426.031 95.1426C425.706 95.9238 425.25 96.6074 424.664 97.1934C424.111 97.7467 423.443 98.1862 422.662 98.5117C421.913 98.8372 421.1 99 420.221 99H391.51C389.947 99 388.271 98.821 386.48 98.4629C384.723 98.1048 382.981 97.5352 381.256 96.7539C379.531 95.9401 377.854 94.931 376.227 93.7266C374.632 92.4896 373.232 91.0085 372.027 89.2832C370.823 87.5254 369.846 85.5072 369.098 83.2285C368.382 80.9499 368.023 78.3783 368.023 75.5137V46.2168H380.719V75.5137C380.719 77.1738 380.995 78.6712 381.549 80.0059C382.135 81.3079 382.916 82.431 383.893 83.375C384.869 84.319 386.008 85.0514 387.311 85.5723C388.645 86.0605 390.077 86.3047 391.607 86.3047H413.824V46.2168H426.52V92.6035ZM496.637 81.1777C496.637 83.3587 496.36 85.3281 495.807 87.0859C495.253 88.8112 494.521 90.3411 493.609 91.6758C492.698 92.9779 491.64 94.1009 490.436 95.0449C489.231 95.9564 487.962 96.7051 486.627 97.291C485.325 97.877 484.007 98.3164 482.672 98.6094C481.337 98.8698 480.068 99 478.863 99H455.963V86.3047H478.863C480.556 86.3047 481.826 85.8652 482.672 84.9863C483.518 84.1074 483.941 82.8379 483.941 81.1777V64.0879C483.941 62.3301 483.502 61.028 482.623 60.1816C481.777 59.3353 480.523 58.9121 478.863 58.9121H456.061C454.335 58.9121 453.033 59.3516 452.154 60.2305C451.275 61.0768 450.836 62.3301 450.836 63.9902V115.504H438.141V63.9902C438.141 61.8092 438.417 59.8561 438.971 58.1309C439.524 56.4056 440.257 54.8919 441.168 53.5898C442.112 52.2552 443.186 51.1322 444.391 50.2207C445.595 49.2767 446.848 48.5117 448.15 47.9258C449.485 47.3398 450.82 46.9167 452.154 46.6562C453.521 46.3633 454.791 46.2168 455.963 46.2168H478.863C481.044 46.2168 482.997 46.4935 484.723 47.0469C486.448 47.6003 487.962 48.3327 489.264 49.2441C490.598 50.1556 491.721 51.2135 492.633 52.418C493.577 53.6224 494.342 54.8919 494.928 56.2266C495.514 57.5286 495.937 58.847 496.197 60.1816C496.49 61.5163 496.637 62.7858 496.637 63.9902V81.1777Z" fill="#FF6902"/>
</svg>
