<svg width="503" height="127" viewBox="0 0 503 127" fill="none" xmlns="http://www.w3.org/2000/svg">
<path fill-rule="evenodd" clip-rule="evenodd" d="M120.632 100.768C116.172 106.868 110.98 113.307 106.315 119.339L70.417 91.0649C75.2177 84.9022 79.9874 78.7153 84.7236 72.5044L120.632 100.768ZM73.4121 35.854C80.0668 35.8509 89.117 35.4123 95.3828 36.9292C101.071 38.2976 106.338 41.0706 110.704 44.9995C119.227 52.6256 122.31 61.2073 123 72.3432C115.329 72.4637 107.647 72.2398 99.9307 72.4253C99.4845 68.9694 98.4298 65.6337 95.8887 63.146C91.7107 59.0545 87.2034 59.3532 81.9541 59.435C74.4928 70.9203 62.9297 87.9643 52.9795 96.7378C37.5584 109.795 17.165 109.792 0 100.089C4.81697 93.8567 9.44345 87.3446 14.2256 81.0542C18.0294 82.9278 24.2385 83.7133 28.4395 83.2534C39.0287 82.0926 47.7233 67.4565 53.8613 59.3862C46.2363 59.6896 37.981 59.3189 30.2334 59.4634C36.1147 51.6298 41.9554 43.7648 47.7559 35.8696L73.4121 35.854ZM84.1006 0.0405149C91.7908 -0.544459 98.4954 5.27399 99.0752 13.0356C99.6525 20.7975 93.8876 27.5632 86.1973 28.146C78.507 28.7284 71.8069 22.9099 71.2295 15.1499C70.6499 7.38998 76.4127 0.625726 84.1006 0.0405149Z" fill="#FF5500"/>
<path d="M221.148 69.5818H192.584C190.859 69.5818 189.557 70.0212 188.678 70.9001C187.799 71.7465 187.359 72.9997 187.359 74.6599V109.67H174.664V74.6599C174.664 72.4789 174.941 70.5258 175.494 68.8005C176.048 67.0753 176.78 65.5616 177.691 64.2595C178.635 62.9249 179.71 61.8018 180.914 60.8904C182.118 59.9464 183.372 59.1814 184.674 58.5955C186.008 58.0095 187.343 57.5863 188.678 57.3259C190.045 57.033 191.314 56.8865 192.486 56.8865H221.148V69.5818ZM287.262 103.273C287.262 104.185 287.099 105.031 286.773 105.812C286.448 106.593 285.992 107.277 285.406 107.863C284.853 108.416 284.186 108.856 283.404 109.181C282.656 109.507 281.842 109.67 280.963 109.67H252.252C250.689 109.67 249.013 109.491 247.223 109.133C245.465 108.774 243.723 108.205 241.998 107.424C240.273 106.61 238.596 105.601 236.969 104.396C235.374 103.159 233.974 101.678 232.77 99.9529C231.565 98.1951 230.589 96.1768 229.84 93.8982C229.124 91.6195 228.766 89.0479 228.766 86.1833V56.8865H241.461V86.1833C241.461 87.8435 241.738 89.3409 242.291 90.6755C242.877 91.9776 243.658 93.1007 244.635 94.0447C245.611 94.9887 246.751 95.7211 248.053 96.2419C249.387 96.7302 250.82 96.9744 252.35 96.9744H274.566V56.8865H287.262V103.273ZM357.672 109.67H344.977V80.3728C344.977 78.7126 344.684 77.2315 344.098 75.9294C343.544 74.5948 342.779 73.4555 341.803 72.5115C340.826 71.5675 339.671 70.8513 338.336 70.363C337.034 69.8422 335.618 69.5818 334.088 69.5818H311.871V109.67H299.176V63.1853C299.176 62.3064 299.339 61.4926 299.664 60.7439C299.99 59.9626 300.445 59.2953 301.031 58.7419C301.617 58.156 302.301 57.7003 303.082 57.3747C303.863 57.0492 304.693 56.8865 305.572 56.8865H334.186C335.781 56.8865 337.457 57.0655 339.215 57.4236C341.005 57.7816 342.763 58.3676 344.488 59.1814C346.246 59.9626 347.906 60.9718 349.469 62.2087C351.064 63.4132 352.464 64.8943 353.668 66.6521C354.905 68.3774 355.882 70.3793 356.598 72.658C357.314 74.9366 357.672 77.5082 357.672 80.3728V109.67ZM426.52 103.273C426.52 104.185 426.357 105.031 426.031 105.812C425.706 106.593 425.25 107.277 424.664 107.863C424.111 108.416 423.443 108.856 422.662 109.181C421.913 109.507 421.1 109.67 420.221 109.67H391.51C389.947 109.67 388.271 109.491 386.48 109.133C384.723 108.774 382.981 108.205 381.256 107.424C379.531 106.61 377.854 105.601 376.227 104.396C374.632 103.159 373.232 101.678 372.027 99.9529C370.823 98.1951 369.846 96.1768 369.098 93.8982C368.382 91.6195 368.023 89.0479 368.023 86.1833V56.8865H380.719V86.1833C380.719 87.8435 380.995 89.3409 381.549 90.6755C382.135 91.9776 382.916 93.1007 383.893 94.0447C384.869 94.9887 386.008 95.7211 387.311 96.2419C388.645 96.7302 390.077 96.9744 391.607 96.9744H413.824V56.8865H426.52V103.273ZM496.637 91.8474C496.637 94.0284 496.36 95.9978 495.807 97.7556C495.253 99.4809 494.521 101.011 493.609 102.345C492.698 103.648 491.64 104.771 490.436 105.715C489.231 106.626 487.962 107.375 486.627 107.961C485.325 108.547 484.007 108.986 482.672 109.279C481.337 109.539 480.068 109.67 478.863 109.67H455.963V96.9744H478.863C480.556 96.9744 481.826 96.5349 482.672 95.656C483.518 94.7771 483.941 93.5076 483.941 91.8474V74.7576C483.941 72.9997 483.502 71.6977 482.623 70.8513C481.777 70.005 480.523 69.5818 478.863 69.5818H456.061C454.335 69.5818 453.033 70.0212 452.154 70.9001C451.275 71.7465 450.836 72.9997 450.836 74.6599V126.174H438.141V74.6599C438.141 72.4789 438.417 70.5258 438.971 68.8005C439.524 67.0753 440.257 65.5616 441.168 64.2595C442.112 62.9249 443.186 61.8018 444.391 60.8904C445.595 59.9464 446.848 59.1814 448.15 58.5955C449.485 58.0095 450.82 57.5863 452.154 57.3259C453.521 57.033 454.791 56.8865 455.963 56.8865H478.863C481.044 56.8865 482.997 57.1632 484.723 57.7165C486.448 58.2699 487.962 59.0024 489.264 59.9138C490.598 60.8253 491.721 61.8832 492.633 63.0876C493.577 64.2921 494.342 65.5616 494.928 66.8962C495.514 68.1983 495.937 69.5167 496.197 70.8513C496.49 72.1859 496.637 73.4555 496.637 74.6599V91.8474Z" fill="#EEEEEE"/>
</svg>
